# xmcd CD database file
#
# Track frame offsets:
#	150
#	12578
#	38152
#	54532
#	73272
#	89463
#	107861
#	132353
#	147520
#	167870
#	183428
#	195710
#	213288
#	226763
#
# Disc length: 3237 seconds
#
# Revision: 0
# Processed by: cddbd v1.5.1PL0 Copyright (c) Steve Scherf et al.
# Submitted via: CDex 1.51
#
DISCID=d00ca30e
DTITLE=Six Foot Seven and the Cousins - Growing Up With The Blues
DYEAR=2004
DGENRE=Blues
TTITLE0=I Still Love You
TTITLE1=Miss You
TTITLE2=Take Care Of Bussines
TTITLE3=Sometimes
TTITLE4=That Can't Be True
TTITLE5=Don't Talk About Leaving
TTITLE6=Cold Cold Feeling
TTITLE7=Girls All Over The World
TTITLE8=Crawfish
TTITLE9=Broken Bone Shuffle
TTITLE10=A Letter To My Girlfriend
TTITLE11=I'll Be Satisfied
TTITLE12=You Got Money
TTITLE13=For Now So Long
EXTD=YEAR: 2004
EXTT0=
EXTT1=
EXTT2=
EXTT3=
EXTT4=
EXTT5=
EXTT6=
EXTT7=
EXTT8=
EXTT9=
EXTT10=
EXTT11=
EXTT12=
EXTT13=
PLAYORDER=
